<mxfile host="app.diagrams.net" modified="2024-02-13T05:40:55.481Z" agent="Mozilla/5.0 (X11; Linux x86_64) AppleWebKit/537.36 (KHTML, like Gecko) Chrome/112.0.0.0 Safari/537.36" etag="QsmLvlYMOUkWvT-m571l" version="23.1.3" type="github">
  <diagram name="Page-1" id="KDIzK8ky4WnUGGq9rNcs">
    <mxGraphModel dx="1362" dy="709" grid="1" gridSize="10" guides="1" tooltips="1" connect="1" arrows="1" fold="1" page="1" pageScale="1" pageWidth="827" pageHeight="1169" math="0" shadow="0">
      <root>
        <mxCell id="0" />
        <mxCell id="1" parent="0" />
        <mxCell id="Jryg0pWDH-_fSKKlzO3I-3" value="" style="sketch=0;outlineConnect=0;fontColor=#232F3E;gradientColor=none;fillColor=#232F3D;strokeColor=none;dashed=0;verticalLabelPosition=bottom;verticalAlign=top;align=center;html=1;fontSize=12;fontStyle=0;aspect=fixed;pointerEvents=1;shape=mxgraph.aws4.document;" vertex="1" parent="1">
          <mxGeometry x="130" y="160" width="57" height="78" as="geometry" />
        </mxCell>
        <mxCell id="Jryg0pWDH-_fSKKlzO3I-4" value="" style="endArrow=classic;html=1;rounded=0;" edge="1" parent="1" source="Jryg0pWDH-_fSKKlzO3I-3">
          <mxGeometry width="50" height="50" relative="1" as="geometry">
            <mxPoint x="390" y="390" as="sourcePoint" />
            <mxPoint x="240" y="200" as="targetPoint" />
          </mxGeometry>
        </mxCell>
        <mxCell id="Jryg0pWDH-_fSKKlzO3I-6" value="BERT" style="rounded=1;whiteSpace=wrap;html=1;fillColor=#ffe6cc;strokeColor=#d79b00;" vertex="1" parent="1">
          <mxGeometry x="240" y="169" width="120" height="60" as="geometry" />
        </mxCell>
        <mxCell id="Jryg0pWDH-_fSKKlzO3I-10" value="" style="endArrow=classic;html=1;rounded=0;exitX=1;exitY=0.5;exitDx=0;exitDy=0;" edge="1" parent="1" source="Jryg0pWDH-_fSKKlzO3I-6">
          <mxGeometry width="50" height="50" relative="1" as="geometry">
            <mxPoint x="360" y="199" as="sourcePoint" />
            <mxPoint x="400" y="199" as="targetPoint" />
          </mxGeometry>
        </mxCell>
        <mxCell id="Jryg0pWDH-_fSKKlzO3I-16" value="" style="rounded=0;whiteSpace=wrap;html=1;fillColor=#dae8fc;strokeColor=#6c8ebf;" vertex="1" parent="1">
          <mxGeometry x="400" y="150" width="80" height="30" as="geometry" />
        </mxCell>
        <mxCell id="Jryg0pWDH-_fSKKlzO3I-17" value="" style="rounded=0;whiteSpace=wrap;html=1;fillColor=#d5e8d4;strokeColor=#82b366;" vertex="1" parent="1">
          <mxGeometry x="400" y="120" width="80" height="30" as="geometry" />
        </mxCell>
        <mxCell id="Jryg0pWDH-_fSKKlzO3I-20" value="" style="rounded=0;whiteSpace=wrap;html=1;fillColor=#dae8fc;strokeColor=#6c8ebf;" vertex="1" parent="1">
          <mxGeometry x="400" y="180" width="80" height="30" as="geometry" />
        </mxCell>
        <mxCell id="Jryg0pWDH-_fSKKlzO3I-23" style="edgeStyle=orthogonalEdgeStyle;rounded=0;orthogonalLoop=1;jettySize=auto;html=1;" edge="1" parent="1" source="Jryg0pWDH-_fSKKlzO3I-21">
          <mxGeometry relative="1" as="geometry">
            <mxPoint x="440" y="250" as="targetPoint" />
          </mxGeometry>
        </mxCell>
        <mxCell id="Jryg0pWDH-_fSKKlzO3I-21" value="" style="rounded=0;whiteSpace=wrap;html=1;fillColor=#dae8fc;strokeColor=#6c8ebf;" vertex="1" parent="1">
          <mxGeometry x="400" y="210" width="80" height="30" as="geometry" />
        </mxCell>
        <mxCell id="Jryg0pWDH-_fSKKlzO3I-22" value="" style="rounded=0;whiteSpace=wrap;html=1;fillColor=#dae8fc;strokeColor=#6c8ebf;" vertex="1" parent="1">
          <mxGeometry x="400" y="240" width="80" height="30" as="geometry" />
        </mxCell>
        <mxCell id="Jryg0pWDH-_fSKKlzO3I-24" value="" style="shape=curlyBracket;whiteSpace=wrap;html=1;rounded=1;labelPosition=left;verticalLabelPosition=middle;align=right;verticalAlign=middle;size=0;" vertex="1" parent="1">
          <mxGeometry x="390" y="150" width="20" height="120" as="geometry" />
        </mxCell>
        <mxCell id="Jryg0pWDH-_fSKKlzO3I-25" value="" style="endArrow=classic;html=1;rounded=0;" edge="1" parent="1">
          <mxGeometry width="50" height="50" relative="1" as="geometry">
            <mxPoint x="390" y="210" as="sourcePoint" />
            <mxPoint x="360" y="280" as="targetPoint" />
          </mxGeometry>
        </mxCell>
        <mxCell id="Jryg0pWDH-_fSKKlzO3I-26" value="Contextual Embedings&amp;nbsp;" style="text;html=1;align=center;verticalAlign=middle;whiteSpace=wrap;rounded=0;" vertex="1" parent="1">
          <mxGeometry x="290" y="280" width="100" height="30" as="geometry" />
        </mxCell>
        <mxCell id="Jryg0pWDH-_fSKKlzO3I-27" value="" style="endArrow=classic;html=1;rounded=0;exitX=1;exitY=0.75;exitDx=0;exitDy=0;" edge="1" parent="1" source="Jryg0pWDH-_fSKKlzO3I-20">
          <mxGeometry width="50" height="50" relative="1" as="geometry">
            <mxPoint x="390" y="390" as="sourcePoint" />
            <mxPoint x="520" y="203" as="targetPoint" />
          </mxGeometry>
        </mxCell>
        <mxCell id="Jryg0pWDH-_fSKKlzO3I-30" value="" style="whiteSpace=wrap;html=1;aspect=fixed;" vertex="1" parent="1">
          <mxGeometry x="520" y="110" width="210" height="210" as="geometry" />
        </mxCell>
        <mxCell id="Jryg0pWDH-_fSKKlzO3I-31" value="" style="ellipse;whiteSpace=wrap;html=1;aspect=fixed;fillColor=#dae8fc;strokeColor=#6c8ebf;" vertex="1" parent="1">
          <mxGeometry x="570" y="160" width="20" height="20" as="geometry" />
        </mxCell>
        <mxCell id="Jryg0pWDH-_fSKKlzO3I-32" value="" style="ellipse;whiteSpace=wrap;html=1;aspect=fixed;fillColor=#f8cecc;strokeColor=#b85450;" vertex="1" parent="1">
          <mxGeometry x="610" y="130" width="20" height="20" as="geometry" />
        </mxCell>
        <mxCell id="Jryg0pWDH-_fSKKlzO3I-33" value="" style="ellipse;whiteSpace=wrap;html=1;aspect=fixed;fillColor=#dae8fc;strokeColor=#6c8ebf;" vertex="1" parent="1">
          <mxGeometry x="610" y="180" width="20" height="20" as="geometry" />
        </mxCell>
        <mxCell id="Jryg0pWDH-_fSKKlzO3I-34" value="" style="ellipse;whiteSpace=wrap;html=1;aspect=fixed;fillColor=#f8cecc;strokeColor=#b85450;" vertex="1" parent="1">
          <mxGeometry x="580" y="215" width="20" height="20" as="geometry" />
        </mxCell>
        <mxCell id="Jryg0pWDH-_fSKKlzO3I-35" value="" style="ellipse;whiteSpace=wrap;html=1;aspect=fixed;fillColor=#dae8fc;strokeColor=#6c8ebf;" vertex="1" parent="1">
          <mxGeometry x="635" y="215" width="20" height="20" as="geometry" />
        </mxCell>
        <mxCell id="Jryg0pWDH-_fSKKlzO3I-36" value="" style="ellipse;whiteSpace=wrap;html=1;aspect=fixed;fillColor=#dae8fc;strokeColor=#6c8ebf;" vertex="1" parent="1">
          <mxGeometry x="670" y="245" width="20" height="20" as="geometry" />
        </mxCell>
        <mxCell id="Jryg0pWDH-_fSKKlzO3I-37" value="" style="ellipse;whiteSpace=wrap;html=1;aspect=fixed;fillColor=#f8cecc;strokeColor=#b85450;" vertex="1" parent="1">
          <mxGeometry x="670" y="140" width="20" height="20" as="geometry" />
        </mxCell>
        <mxCell id="Jryg0pWDH-_fSKKlzO3I-38" value="" style="ellipse;whiteSpace=wrap;html=1;aspect=fixed;rotation=4;fillColor=#f8cecc;strokeColor=#b85450;" vertex="1" parent="1">
          <mxGeometry x="600" y="260" width="20" height="20" as="geometry" />
        </mxCell>
        <mxCell id="Jryg0pWDH-_fSKKlzO3I-42" value="" style="endArrow=none;html=1;rounded=0;entryX=0.5;entryY=1;entryDx=0;entryDy=0;exitX=0.5;exitY=0;exitDx=0;exitDy=0;" edge="1" parent="1" source="Jryg0pWDH-_fSKKlzO3I-34" target="Jryg0pWDH-_fSKKlzO3I-31">
          <mxGeometry width="50" height="50" relative="1" as="geometry">
            <mxPoint x="390" y="390" as="sourcePoint" />
            <mxPoint x="440" y="340" as="targetPoint" />
          </mxGeometry>
        </mxCell>
        <mxCell id="Jryg0pWDH-_fSKKlzO3I-43" value="" style="endArrow=none;html=1;rounded=0;entryX=0;entryY=1;entryDx=0;entryDy=0;exitX=0.5;exitY=0;exitDx=0;exitDy=0;" edge="1" parent="1" target="Jryg0pWDH-_fSKKlzO3I-33">
          <mxGeometry width="50" height="50" relative="1" as="geometry">
            <mxPoint x="600" y="225" as="sourcePoint" />
            <mxPoint x="590" y="190" as="targetPoint" />
          </mxGeometry>
        </mxCell>
        <mxCell id="Jryg0pWDH-_fSKKlzO3I-44" value="" style="endArrow=none;html=1;rounded=0;entryX=0;entryY=1;entryDx=0;entryDy=0;exitX=0.5;exitY=0;exitDx=0;exitDy=0;" edge="1" parent="1" source="Jryg0pWDH-_fSKKlzO3I-38" target="Jryg0pWDH-_fSKKlzO3I-35">
          <mxGeometry width="50" height="50" relative="1" as="geometry">
            <mxPoint x="610" y="235" as="sourcePoint" />
            <mxPoint x="600" y="200" as="targetPoint" />
          </mxGeometry>
        </mxCell>
        <mxCell id="Jryg0pWDH-_fSKKlzO3I-45" value="" style="endArrow=none;html=1;rounded=0;entryX=1;entryY=1;entryDx=0;entryDy=0;exitX=0;exitY=0;exitDx=0;exitDy=0;" edge="1" parent="1" source="Jryg0pWDH-_fSKKlzO3I-35" target="Jryg0pWDH-_fSKKlzO3I-33">
          <mxGeometry width="50" height="50" relative="1" as="geometry">
            <mxPoint x="390" y="390" as="sourcePoint" />
            <mxPoint x="440" y="340" as="targetPoint" />
          </mxGeometry>
        </mxCell>
        <mxCell id="Jryg0pWDH-_fSKKlzO3I-48" value="" style="endArrow=none;html=1;rounded=0;entryX=0;entryY=1;entryDx=0;entryDy=0;exitX=1;exitY=0.5;exitDx=0;exitDy=0;" edge="1" parent="1" source="Jryg0pWDH-_fSKKlzO3I-38" target="Jryg0pWDH-_fSKKlzO3I-36">
          <mxGeometry width="50" height="50" relative="1" as="geometry">
            <mxPoint x="631" y="280" as="sourcePoint" />
            <mxPoint x="658" y="252" as="targetPoint" />
          </mxGeometry>
        </mxCell>
        <mxCell id="Jryg0pWDH-_fSKKlzO3I-49" value="" style="endArrow=none;html=1;rounded=0;entryX=0;entryY=1;entryDx=0;entryDy=0;exitX=1;exitY=0;exitDx=0;exitDy=0;" edge="1" parent="1" source="Jryg0pWDH-_fSKKlzO3I-55" target="Jryg0pWDH-_fSKKlzO3I-37">
          <mxGeometry width="50" height="50" relative="1" as="geometry">
            <mxPoint x="390" y="390" as="sourcePoint" />
            <mxPoint x="440" y="340" as="targetPoint" />
          </mxGeometry>
        </mxCell>
        <mxCell id="Jryg0pWDH-_fSKKlzO3I-50" value="" style="endArrow=none;html=1;rounded=0;entryX=1;entryY=0;entryDx=0;entryDy=0;exitX=0;exitY=1;exitDx=0;exitDy=0;" edge="1" parent="1" source="Jryg0pWDH-_fSKKlzO3I-32" target="Jryg0pWDH-_fSKKlzO3I-31">
          <mxGeometry width="50" height="50" relative="1" as="geometry">
            <mxPoint x="390" y="390" as="sourcePoint" />
            <mxPoint x="440" y="340" as="targetPoint" />
          </mxGeometry>
        </mxCell>
        <mxCell id="Jryg0pWDH-_fSKKlzO3I-51" value="" style="endArrow=none;html=1;rounded=0;entryX=1;entryY=0.5;entryDx=0;entryDy=0;exitX=0;exitY=0.5;exitDx=0;exitDy=0;" edge="1" parent="1" source="Jryg0pWDH-_fSKKlzO3I-37" target="Jryg0pWDH-_fSKKlzO3I-32">
          <mxGeometry width="50" height="50" relative="1" as="geometry">
            <mxPoint x="390" y="390" as="sourcePoint" />
            <mxPoint x="440" y="340" as="targetPoint" />
          </mxGeometry>
        </mxCell>
        <mxCell id="Jryg0pWDH-_fSKKlzO3I-52" value="" style="endArrow=none;dashed=1;html=1;dashPattern=1 3;strokeWidth=2;rounded=0;entryX=0;entryY=0.5;entryDx=0;entryDy=0;" edge="1" parent="1" source="Jryg0pWDH-_fSKKlzO3I-30" target="Jryg0pWDH-_fSKKlzO3I-32">
          <mxGeometry width="50" height="50" relative="1" as="geometry">
            <mxPoint x="390" y="390" as="sourcePoint" />
            <mxPoint x="440" y="340" as="targetPoint" />
          </mxGeometry>
        </mxCell>
        <mxCell id="Jryg0pWDH-_fSKKlzO3I-53" value="" style="endArrow=none;dashed=1;html=1;dashPattern=1 3;strokeWidth=2;rounded=0;" edge="1" parent="1" source="Jryg0pWDH-_fSKKlzO3I-30">
          <mxGeometry width="50" height="50" relative="1" as="geometry">
            <mxPoint x="440" y="245" as="sourcePoint" />
            <mxPoint x="570" y="165.98039215686276" as="targetPoint" />
          </mxGeometry>
        </mxCell>
        <mxCell id="Jryg0pWDH-_fSKKlzO3I-54" value="" style="rounded=0;whiteSpace=wrap;html=1;fillColor=#f8cecc;strokeColor=#b85450;" vertex="1" parent="1">
          <mxGeometry x="670" y="130" width="50" height="10" as="geometry" />
        </mxCell>
        <mxCell id="Jryg0pWDH-_fSKKlzO3I-56" value="" style="rounded=0;whiteSpace=wrap;html=1;fillColor=#dae8fc;strokeColor=#6c8ebf;" vertex="1" parent="1">
          <mxGeometry x="650" y="205" width="50" height="10" as="geometry" />
        </mxCell>
        <mxCell id="Jryg0pWDH-_fSKKlzO3I-57" value="" style="rounded=0;whiteSpace=wrap;html=1;fillColor=#dae8fc;strokeColor=#6c8ebf;" vertex="1" parent="1">
          <mxGeometry x="670" y="235" width="50" height="10" as="geometry" />
        </mxCell>
        <mxCell id="Jryg0pWDH-_fSKKlzO3I-60" value="" style="endArrow=none;html=1;rounded=0;entryX=0;entryY=1;entryDx=0;entryDy=0;exitX=1;exitY=0;exitDx=0;exitDy=0;" edge="1" parent="1" source="Jryg0pWDH-_fSKKlzO3I-33" target="Jryg0pWDH-_fSKKlzO3I-55">
          <mxGeometry width="50" height="50" relative="1" as="geometry">
            <mxPoint x="627" y="183" as="sourcePoint" />
            <mxPoint x="673" y="157" as="targetPoint" />
          </mxGeometry>
        </mxCell>
        <mxCell id="Jryg0pWDH-_fSKKlzO3I-55" value="" style="rounded=0;whiteSpace=wrap;html=1;fillColor=#dae8fc;strokeColor=#6c8ebf;" vertex="1" parent="1">
          <mxGeometry x="605" y="170" width="50" height="10" as="geometry" />
        </mxCell>
        <mxCell id="Jryg0pWDH-_fSKKlzO3I-61" value="" style="rounded=0;whiteSpace=wrap;html=1;fillColor=#f8cecc;strokeColor=#b85450;" vertex="1" parent="1">
          <mxGeometry x="595" y="120" width="50" height="10" as="geometry" />
        </mxCell>
        <mxCell id="Jryg0pWDH-_fSKKlzO3I-62" value="" style="rounded=0;whiteSpace=wrap;html=1;fillColor=#dae8fc;strokeColor=#6c8ebf;" vertex="1" parent="1">
          <mxGeometry x="550" y="150" width="50" height="10" as="geometry" />
        </mxCell>
        <mxCell id="Jryg0pWDH-_fSKKlzO3I-63" value="" style="rounded=0;whiteSpace=wrap;html=1;fillColor=#f8cecc;strokeColor=#b85450;" vertex="1" parent="1">
          <mxGeometry x="555" y="205" width="50" height="10" as="geometry" />
        </mxCell>
        <mxCell id="Jryg0pWDH-_fSKKlzO3I-64" value="" style="rounded=0;whiteSpace=wrap;html=1;fillColor=#f8cecc;strokeColor=#b85450;" vertex="1" parent="1">
          <mxGeometry x="585" y="250" width="50" height="10" as="geometry" />
        </mxCell>
        <mxCell id="Jryg0pWDH-_fSKKlzO3I-65" style="edgeStyle=orthogonalEdgeStyle;rounded=0;orthogonalLoop=1;jettySize=auto;html=1;exitX=0.5;exitY=0;exitDx=0;exitDy=0;entryX=0.25;entryY=0;entryDx=0;entryDy=0;" edge="1" parent="1" source="Jryg0pWDH-_fSKKlzO3I-63" target="Jryg0pWDH-_fSKKlzO3I-63">
          <mxGeometry relative="1" as="geometry" />
        </mxCell>
        <mxCell id="Jryg0pWDH-_fSKKlzO3I-66" style="edgeStyle=orthogonalEdgeStyle;rounded=0;orthogonalLoop=1;jettySize=auto;html=1;exitX=0.5;exitY=1;exitDx=0;exitDy=0;" edge="1" parent="1" source="Jryg0pWDH-_fSKKlzO3I-30" target="Jryg0pWDH-_fSKKlzO3I-30">
          <mxGeometry relative="1" as="geometry" />
        </mxCell>
        <mxCell id="Jryg0pWDH-_fSKKlzO3I-67" value="Text" style="text;html=1;align=center;verticalAlign=middle;whiteSpace=wrap;rounded=0;" vertex="1" parent="1">
          <mxGeometry x="585" y="70" width="60" height="30" as="geometry" />
        </mxCell>
      </root>
    </mxGraphModel>
  </diagram>
</mxfile>
